<?xml version="1.0" encoding="utf-8"?>
<!-- Generator: Adobe Illustrator 25.2.3, SVG Export Plug-In . SVG Version: 6.00 Build 0)  -->
<svg version="1.1" xmlns="http://www.w3.org/2000/svg" xmlns:xlink="http://www.w3.org/1999/xlink" x="0px" y="0px"
	 viewBox="0 0 600 600" style="enable-background:new 0 0 600 600;" xml:space="preserve">
<style type="text/css">
	.st0{fill:#9AB3DA;}
	.st1{fill:#404B7C;}
	.st2{fill:none;stroke:#404B7C;stroke-linecap:round;stroke-linejoin:round;stroke-miterlimit:10;}
	.st3{fill:#FFFFFF;}
	.st4{fill:none;stroke:#9AB3DA;stroke-linecap:round;stroke-linejoin:round;stroke-miterlimit:10;}
	.st5{fill:#ECBDBB;}
	.st6{fill:#F68D88;}
	.st7{fill:#6B81BE;}
	.st8{fill:none;stroke:#ECBDBB;stroke-linecap:round;stroke-linejoin:round;stroke-miterlimit:10;}
	.st9{fill:none;stroke:#6B81BE;stroke-linecap:round;stroke-linejoin:round;stroke-miterlimit:10;}
	.st10{fill:#E9F3FF;}
	.st11{fill:#FFFFFF;stroke:#272525;stroke-miterlimit:10;}
</style>
<g id="LEFT_ARM">
	<g>
		<path class="st0" d="M416.7527771,311.7255249c-1.6533813,3.1434937-4.288269,5.5056458-8.1040649,6.9048462
			c-21.1143188,7.7225342-34.3062439-21.3505554-45.2086487-47.0257263
			c-4.8880005-11.5020447-10.4663086-22.7497101-15.7540283-33.9791718
			c-6.5050354-13.8460388-12.6103516-27.6920776-16.4807129-42.1014099
			c-7.0502319-26.1112518,18.6067505-36.7956085,28.3825684-29.5273438c0,0,24.0761414,29.5273438,39.5212097,68.8305054
			C411.7558289,266.9892273,424.2392883,297.4978638,416.7527771,311.7255249z"/>
		<path class="st1" d="M416.7527466,311.7255249c-1.6533203,3.1434937-4.2882385,5.5056458-8.1040344,6.9048462
			c-21.1143188,7.7225342-34.3062439-21.3505554-45.2086487-47.0257263
			c-4.8880005-11.5020447-10.4663086-22.7497101-15.7540283-33.9791718c5.7058411-0.0726471,9.4850464,0.145401,9.4850464,0.145401
			C368.6998596,271.2773438,382.2193909,303.9026184,416.7527466,311.7255249z"/>
	</g>
</g>
<g id="RIGHT_ARM">
	<g>
		<g>
			<path class="st0" d="M265.9179688,176.0995789c-7.8496094-10.3027344-21.677475-13.9005737-30.7991791-6.0144653
				c-13.0062256,11.260498-34.9824219,58.3240356-36.6862793,61.998291c0,0-12.8058472,28.4568787-6.8816833,46.8430786
				c2.9487,9.1515808,14.56987,11.8787842,21.4448853,5.157135c3.3558655-3.2810059,7.2737885-7.4815979,11.4933167-12.3155212
				c13.6641235-15.6630859,30.4901733-38.0130005,41.5198822-57.3102417
				C274.9669189,198.7765808,272.6592407,184.9668884,265.9179688,176.0995789z"/>
			<path class="st1" d="M266.0089417,214.4578705c-11.0297241,19.2972412-27.8557892,41.6471405-41.5199432,57.310257
				c5.2513428-24.3123627,11.6292725-50.2055817,11.7563782-50.80513
				c8.3584595-37.7587128,18.7338409-47.4436035,29.6726227-44.8633881
				C272.6592407,184.9669037,274.9669495,198.7765656,266.0089417,214.4578705z"/>
		</g>
	</g>
</g>
<g id="BODY">
	<g>
		<g>
			<g>
				<path class="st0" d="M367.7647095,293.1914062c-0.9085388-9.0853271-8.1768188-127.1946869-8.1768188-127.1946869
					s-44.9724121-22.7133484-71.3198853-19.0792084s-53.1492157,23.1676025-53.1492157,23.1676025
					c-9.0853271,49.9693451,8.631073,99.0301819,5.4512024,124.4691162
					c-3.1798553,25.4389343-26.8017426,82.6765442-26.8017426,82.6765442
					c23.4240265,17.4750671,47.4868469,24.927124,70.1017151,26.5452271
					c5.1890259-8.7480774,23.62854-38.8104248,23.62854-38.8104248l28.4249268,33.1620178
					c34.4681702-9.5830688,58.1887512-27.2565613,58.1887512-27.2565613S368.6732483,302.2767639,367.7647095,293.1914062z"/>
				<path class="st2" d="M234.4805908,173.8713531c-4.3108215,27.7210388-0.7250061,54.984726,2.5841675,77.8990173"/>
				<path class="st2" d="M366.9361572,281.9772644c-1.7063599-25.0149231-5.3144531-83.0802917-6.7453003-106.2136383"/>
			</g>
			<polygon class="st1" points="245.1126709,333.1669006 241.6299591,345.4320984 276.3056641,354.5174255 279.9397888,342.1007996 
							"/>
			<polygon class="st1" points="359.6693115,329.8140564 363.888855,341.8456726 329.8274536,353.0155945 325.4475708,340.8420105 
							"/>
			<path class="st2" d="M305.5301514,362.9213867l-9.0853271-9.4260559c0,0,6.3597412-35.3192444,6.8139954-93.4653931"/>
		</g>
		<path class="st1" d="M290.5393372,141.2391815c0,0-11.5838013,2.2713318-31.5715332,13.1737366
			c0,0-9.9181519,12.7951813-15.3693542,31.8743896l22.7133484,4.5426636l-10.2967224,19.9877319l47.2437439,46.9409027
			l35.1299744-50.2721863l-12.7194824-23.3190308l22.107666-4.2398224c0,0-10.5995789-22.4862061-16.3536072-28.2402496
			C325.6693115,145.9332733,299.6246948,140.0278015,290.5393372,141.2391815z"/>
		<g>
			<path class="st3" d="M290.085083,147.2582092c-6.6352234,1.3270874-20.1272583,7.314743-26.9259644,10.449585
				c3.6543274,13.4847107,19.7100525,65.6337891,39.4941711,90.6625977c0,0,15.5045166-63.406601,22.1563721-95.1679993
				C316.0656738,150.7752228,296.9944458,145.8763275,290.085083,147.2582092z"/>
			<g>
				<path class="st1" d="M310.2835388,216.7068024c-1.4075928-9.4291382-5.4678345-34.4087219-11.2644043-51.3158417
					l-6.7762756-1.438446l-4.7321167,2.9527283c0,0-3.5411987,22.533905-2.9915466,50.0047302
					c5.4254761,11.8691711,11.572052,23.1590729,18.1340942,31.4604187
					C302.6532898,248.3703918,306.0181274,234.608963,310.2835388,216.7068024z"/>
				<path class="st4" d="M282.4264221,212.2407227c5.9130554,13.5442657,12.8078003,26.743866,20.2268677,36.1296692
					c0,0,3.7047729-15.1509857,8.2693481-34.3504944"/>
				<path class="st4" d="M288.72229,178.7161865c0,0,6.9275513-0.6813965,11.0159607-0.4542694"/>
			</g>
		</g>
		<g>
			<path class="st3" d="M293.7990417,166.6024017c0,0-8.9338989,4.2398224-18.1706543,13.3251648
				c0,0-2.1199036-32.4043732,14.9907837-35.5842285c17.1107178-3.1798706,21.8048096,31.0415649,21.8048096,31.0415649
				S308.0327454,170.8422241,293.7990417,166.6024017z"/>
			<path class="st4" d="M302.7009888,149.4334869c7.3861694,8.9151611,9.7229919,25.951416,9.7229919,25.951416
				s-4.3912354-4.5426788-18.624939-8.7825012c0,0-8.9338989,4.2398224-18.1706543,13.3251648
				c0,0-1.0910645-16.6776581,4.6100769-27.2777252"/>
		</g>
	</g>
</g>
<g id="NECK">
	<g>
		<path class="st5" d="M299.7446289,157.7506409c-0.1300049,1.9800415-4.5800171,7.9100342-11.0300293,3.6199951
			l-3.5899658-10.4199829l-3.5700073-10.3099976l12.6399536-11.2999878l0.1100464-0.0999756l0.1099854,0.5899658
			l0.9500122,4.9899902l3.2799683,17.1799927L299.7446289,157.7506409z"/>
		<path class="st1" d="M298.6445923,152.0006409c-1.1399536,3.7900391-3.789978,8.4000244-9.9299927,9.3699951
			l-3.5899658-10.4199829l-3.5700073-10.3099976l12.6399536-11.2999878l0.1100464-0.0999756l0.1099854,0.5899658
			l0.9500122,4.9899902L298.6445923,152.0006409z"/>
	</g>
</g>
<g id="HEAD">
	<g>
		<g>
			<path class="st5" d="M266.3148804,131.4265289c0,0-4.9969177-4.4291-8.6310425-0.6813965
				c-3.63414,3.7476959,2.7255859,14.3094025,12.4923401,13.1737366L266.3148804,131.4265289z"/>
			<path class="st2" d="M260.2579956,133.6978607c0,0,3.4070129,0.5299835,6.9654236,5.2240753"/>
		</g>
		<path class="st1" d="M256.6490479,121.1165771c3.3205566,8.2871246,10.5743713,17.4356384,10.5743713,17.4356384
			l-0.5580139-13.9736633L256.6490479,121.1165771z"/>
		<path class="st5" d="M277.1851807,105.6827087c-14.292572,1.6292038-13.7794189,22.7133331-9.2367554,37.4013062
			c4.5426636,14.6879578,18.9277649,21.9562225,29.3759155,8.0253754
			C307.7724609,137.1785431,306.409668,102.3514175,277.1851807,105.6827087z"/>
		<path class="st1" d="M297.3243713,151.1093903c2.9980469-4.594574,4.8792114-9.6684875,5.2997437-15.3693695l-2.0006714-0.4209442
			l-0.4707947-9.4500275c0,0-10.213562,1.1641998-8.2694092-12.5728226c0,0-9.7989197,9.3387985-23.8811951,10.4653702
			c-14.0822601,1.1447601-31.242691-10.3354416-29.5345306-15.4595871c1.617218-4.906105,8.9036713-0.9085312,9.4850311-0.5814743
			c-0.8357849-0.8721542-12.9207916-15.3267365-9.1194916-24.1878815
			c5.7106018-13.3119202,34.633194,3.6341324,50.6596222,13.628006c2.4532166,1.5262756,4.8334656,2.9254532,7.1047974,4.2337952
			c-1.7443237-3.034584-4.4337769-7.922493-6.7776489-13.0829086c-3.8521729-8.522049,9.9938965-7.8497391,12.6105652,16.2445908
			c0,0,7.6134033-14.2094803,13.7369385-11.7019196c5.1604004,2.0895615-2.0351257,10.5207825-9.3033752,14.3729553
			c7.3228149,4.3064346,10.309906,6.8321915,11.5272217,12.3924103
			C320.4262695,128.9229584,297.3243713,151.1093903,297.3243713,151.1093903z"/>
		<g>
			<path class="st5" d="M300.1284485,131.6318817c0,0,1.5464172-6.3780975,8.6421204-5.7119217
				c7.0957031,0.6661682,5.0907593,16.4973526-9.2611389,15.3858261L300.1284485,131.6318817z"/>
			<path class="st2" d="M301.8114014,136.8526001c0,0,1.4646301-6.2298584,7.269104-7.3587494"/>
			<path class="st2" d="M307.2345581,135.7840424c0,0-0.3327942-2.3458099-2.4690552-4.0267792"/>
		</g>
	</g>
</g>
<g id="FACE">
	<g>
		<path class="st1" d="M295.4642334,127.2735367c0,0-3.2351074-5.3975372-7.3276062-2.9076996
			c0,0-0.2186279-1.2677765-1.3370972-1.2059326s-0.947937,3.5628357-0.947937,3.5628357
			S290.9396362,125.8870773,295.4642334,127.2735367z"/>
		<path class="st1" d="M269.9764709,128.7676697c0,0,1.4631653-5.5659103,4.403595-3.354248
			c0,0,0.2909241-1.0232925,1.0200806-0.9997253c1.2611389,0.0407562,0.8647766,3.3258133,0.8647766,3.3258133
			S272.7434082,127.102623,269.9764709,128.7676697z"/>
		<g>
			
				<ellipse transform="matrix(0.9937467 -0.1116581 0.1116581 0.9937467 -13.5740013 31.6591339)" class="st1" cx="275.862793" cy="137.0169678" rx="2.3626127" ry="2.9210486"/>
			<circle class="st3" cx="275.2294617" cy="136.0452881" r="0.6282402"/>
		</g>
		<path class="st2" d="M281.4432373,142.4728088c0,0-2.6833801,1.3404083-1.8455811,3.2891541
			c0.9707947,2.2580872,4.2245789,1.0274963,4.2245789,1.0274963"/>
		<circle class="st2" cx="289.880249" cy="135.5316162" r="6.5490131"/>
		<circle class="st2" cx="273.7570801" cy="136.9163361" r="6.5490131"/>
		<path class="st3" d="M281.5546265,152.0718994c0,0,5.4408875,1.40625,10.0496216-4.2668152
			C291.604248,147.8050842,291.3598938,157.4595337,281.5546265,152.0718994z"/>
		<path class="st2" d="M287.0778809,136.3306732c0,0,0.4232483-1.5223541,2.1386108-1.633728
			c1.715332-0.1113892,2.25,1.1361389,2.25,1.1361389"/>
	</g>
</g>
<g id="RIGHT_HAND">
	<g>
		<path class="st5" d="M189.162796,275.9194946c0,0,4.8712921,11.4059448,11.5247498,13.3069458
			c6.6534729,1.901001,11.1683197-2.1386108,11.1683197-2.1386108s9.5049438,2.1878662,13.6633606-5.9753723
			s4.2772369-17.4305725,7.3663483-22.8959351c3.0890961-5.465332-3.6831818-8.7920685-8.9109039-2.9702759
			c-5.2277222,5.8217773-10.2178192,8.197998-10.2178192,8.197998L189.162796,275.9194946z"/>
		<g>
			<path class="st1" d="M189.0533295,275.4715271c-0.072998-0.1605835-0.1393433-0.3248901-0.1990204-0.4929504
				c-1.0184631-2.8675842,0.4060364-6.0411987,3.1143494-7.4287415l39.2638702-20.5641937l4.6519928,8.3094635
				l-38.0044556,22.6912231C194.7675018,279.8829956,190.561554,278.7897644,189.0533295,275.4715271z"/>
			<circle class="st6" cx="262.2756042" cy="235.0637817" r="36.4158401"/>
			<circle class="st7" cx="262.2756042" cy="235.0637817" r="26.7326736"/>
			<g>
				<path class="st0" d="M276.7976685,233.068512c0.136261,0.9938202,0.1682129,1.9935303,0.1000671,2.9835052
					c-0.1517029,2.2039032,1.5119019,4.1135254,3.7158203,4.2652588c2.2039185,0.1517181,4.1135559-1.5119019,4.2652893-3.7158203
					c0.1052551-1.5290527,0.0561523-3.0771179-0.1552734-4.6194458c-0.3000488-2.1886902-2.3175354-3.7197266-4.5062256-3.419693
					c-2.1886902,0.3000183-3.719696,2.3175354-3.4196777,4.5062256V233.068512z"/>
				<path class="st0" d="M255.1172638,222.2778168c3.188736-1.7828064,6.7166901-2.245575,10.036026-1.5824432
					c3.3171082,0.6672668,6.3773804,2.465271,8.5689697,5.2150116c1.3770752,1.7274017,3.8937378,2.0113983,5.6211243,0.6343231
					c1.727417-1.3770752,2.0114441-3.8937531,0.6343689-5.6211395c-3.4017944-4.2665863-8.1422119-7.0465088-13.2488098-8.0714722
					c-5.1043701-1.0291595-10.6230469-0.2984772-15.5196381,2.4452209c-1.9276123,1.0791626-2.615448,3.5166016-1.5362701,5.4442444
					c1.0791626,1.9276276,3.5166321,2.6154327,5.4442444,1.5362701L255.1172638,222.2778168z"/>
			</g>
		</g>
		<g>
			<path class="st5" d="M186.0736847,261.4493713c0,0-5.7029724-0.1188049-5.7029724,10.0990295
				c0,10.217804,5.9405975,15.3267212,10.5742645,10.6930542c0,0,2.0197906,2.8482666,6.1782074,1.7211609
				s4.1584167-4.9290771,4.1584167-4.9290771s2.0198059,3.8019714,6.7722778,2.4950562
				c4.7524872-1.3069458,4.3960419-5.9405823,4.3960419-5.9405823s2.4950562,5.3465271,8.0792084,3.2079163
				c5.5841675-2.1386108,0.9505005-11.2871399,0-16.633667s1.9009857-10.6930695-2.257431-14.7326813
				c-4.1584015-4.0395966-9.5049438,0-10.4554443,3.4455414c0,0-6.6534576-3.6831665-11.4059296,4.9901123
				C196.4103241,255.8652344,189.281601,253.6078033,186.0736847,261.4493713z"/>
			<path class="st2" d="M194.022171,284.102478c0.8529663,0.1793823,1.8856506,0.1895447,3.1010132-0.1398621
				c4.1584167-1.1271057,4.1584167-4.9290771,4.1584167-4.9290771s2.0198059,3.8019714,6.7722778,2.4950562
				c4.7524872-1.3069458,4.3960419-5.9405823,4.3960419-5.9405823s2.4950562,5.3465271,8.0792084,3.2079163
				c5.5841675-2.1386108,0.9505005-11.2871399,0-16.633667c-0.2664337-1.4987183-0.2341309-2.997467-0.1412201-4.4674072"/>
			<path class="st2" d="M187.3806152,264.3008728c0,0-0.7941742,7.8269958,2.376236,14.6138611"/>
			<path class="st2" d="M197.1231842,261.0929565c0,0,0,7.366333,2.8514862,14.0198059"/>
			<path class="st2" d="M208.2915039,257.0533447c0,0,0.1188202,8.3168335,2.1386108,13.4257507"/>
		</g>
	</g>
</g>
<g id="PLANT">
	<g>
		<g>
			<g>
				<path class="st6" d="M187.2921448,508.5768127c0,0-108.3194351,9.570343-159.1925659-93.2693481
					C28.0995712,415.3074646,137.9757538,397.1500549,187.2921448,508.5768127z"/>
				<g>
					<path class="st5" d="M89.493515,443.0751038c-13.2382202,8.6320496-26.6681824,9.754425-38.0551529,8.0157166
						c6.2485237,7.3682861,12.832756,13.8167419,19.604454,19.4358215
						c8.302597-1.0336609,17.124176-4.1794434,25.9365768-10.7108154
						c14.9313354-11.0663452,28.5858078-15.4468994,39.4726486-16.7915344
						c-4.501236-3.3157959-9.0577698-6.26474-13.627533-8.8786621
						C112.1194,433.811615,100.441597,435.9363403,89.493515,443.0751038z"/>
					<path class="st5" d="M126.2774277,468.6711731c-11.6569672,11.2417297-24.9959641,14.7759705-36.7147293,15.0641785
						c9.4716797,5.7764587,19.0138779,10.2462463,28.2332916,13.6893311
						c6.48423-2.7911072,12.9489746-7.1570435,18.9859619-13.7219543
						c7.9843292-8.6824341,15.9677734-14.6081238,23.4081726-18.6549072
						c-3.092041-3.5822449-6.2632446-6.9128113-9.493042-10.0174561
						C142.2285309,457.2985535,133.7313995,461.4826965,126.2774277,468.6711731z"/>
				</g>
			</g>
			<line class="st8" x1="38.9219666" y1="421.9946289" x2="180.4959106" y2="503.5523376"/>
		</g>
		<g>
			<path class="st0" d="M209.5430908,476.241394c0,0-10.4272461-108.8656616-103.6922607-127.346405
				C105.8508301,348.894989,92.0918579,436.9931335,209.5430908,476.241394z"/>
			<path class="st9" d="M120.141571,365.9823608c0.7819366,0.4179077,80.4934387,101.6277771,80.4934387,101.6277771"/>
		</g>
		<g>
			<g>
				<path class="st6" d="M429.0479126,510.7032776c0,0,108.4962769-7.2971191,142.8525391-116.7673035
					C571.9004517,393.9359741,460.5380859,392.9900818,429.0479126,510.7032776z"/>
				<g>
					<path class="st5" d="M515.5396118,430.8644714c14.4139404,6.480835,27.855896,5.5126953,38.8369751,2.033844
						c-5.0338135,8.2459717-10.5415039,15.6351318-16.3627319,22.2339172
						c-8.3625488,0.2628174-17.5645142-1.4808044-27.2810059-6.5706787
						c-16.4631653-8.6239929-30.6308289-10.8400879-41.594635-10.4848328
						c3.9342651-3.9720459,7.9798889-7.59021,12.0904236-10.879425
						C491.7532959,425.2117004,503.6192017,425.5047913,515.5396118,430.8644714z"/>
					<path class="st5" d="M483.1568604,461.8414612c13.2553101,9.3036499,26.9804077,10.7324219,38.6027832,9.2047729
						c-8.4643555,7.171814-17.2005005,13.0635986-25.7764893,17.8910828
						c-6.8378601-1.7546997-13.9000549-5.0682983-20.8796997-10.6205444
						c-9.2310791-7.3431702-18.0349121-11.9628601-26.0116577-14.8102722
						c2.500824-4.017334,5.1187744-7.7982788,7.8295898-11.3650513
						C465.6388245,453.0726318,474.6808167,455.8922729,483.1568604,461.8414612z"/>
				</g>
			</g>
			<line class="st8" x1="562.2424316" y1="402.2164307" x2="434.9852905" y2="504.6882019"/>
		</g>
		<g>
			<g>
				<path class="st0" d="M444.5017395,434.7348938c0,0,2.1593628-50.9923401,45.1645508-61.9177856
					C489.6662903,372.8171082,498.2631531,413.5314941,444.5017395,434.7348938z"/>
			</g>
		</g>
	</g>
</g>
<g id="ORNAMENT_12">
	<circle class="st10" cx="120.141571" cy="167.462616" r="9.3535576"/>
</g>
<g id="ORNAMENT_11">
	<circle class="st10" cx="62.2713394" cy="136.6902008" r="4.0884013"/>
</g>
<g id="ORNAMENT_10">
	<circle class="st10" cx="503.8670654" cy="273.6558533" r="6.1372185"/>
</g>
<g id="ORNAMENT_9">
	<circle class="st10" cx="407.0162659" cy="133.7706604" r="9.9938698"/>
</g>
<g id="ORNAMENT_8">
	<circle class="st10" cx="465.2839966" cy="165.2778931" r="3.3605433"/>
</g>
<g id="ORNAMENT_7">
	<circle class="st10" cx="386.584259" cy="63.830368" r="2.8249717"/>
</g>
<g id="ORNAMENT_6">
	<circle class="st10" cx="141.3341522" cy="291.79245" r="7.9496689"/>
</g>
<g id="ORNAMENT_5">
	<circle class="st10" cx="185.7483215" cy="107.458786" r="3.4637845"/>
</g>
<g id="ORNAMENT_4">
	<g>
		<line class="st2" x1="135.7935333" y1="54.3359985" x2="135.7935333" y2="60.3845444"/>
		<line class="st2" x1="145.9009247" y1="64.4434357" x2="139.8524323" y2="64.4434357"/>
		<line class="st2" x1="135.7935333" y1="74.5508728" x2="135.7935333" y2="68.502327"/>
		<line class="st2" x1="125.6860504" y1="64.4434357" x2="131.7346344" y2="64.4434357"/>
	</g>
</g>
<g id="ORNAMENT_3">
	<g>
		<line class="st2" x1="83.6365662" y1="265.3606873" x2="83.6365662" y2="268.4873047"/>
		<line class="st2" x1="88.8613205" y1="270.5854492" x2="85.7347031" y2="270.5854492"/>
		<line class="st2" x1="83.6365662" y1="275.8101807" x2="83.6365662" y2="272.6835632"/>
		<line class="st2" x1="78.41185" y1="270.5854492" x2="81.5384598" y2="270.5854492"/>
	</g>
</g>
<g id="ORNAMENT_2">
	<g>
		<line class="st2" x1="456.8769226" y1="252.2165833" x2="456.8769226" y2="258.2651367"/>
		<line class="st2" x1="466.984375" y1="262.3240051" x2="460.9358215" y2="262.3240051"/>
		<line class="st2" x1="456.8769226" y1="272.4314575" x2="456.8769226" y2="266.3829041"/>
		<line class="st2" x1="446.7695007" y1="262.3240051" x2="452.8180542" y2="262.3240051"/>
	</g>
</g>
<g id="ORNAMENT_1">
	<g>
		<line class="st2" x1="513.9744873" y1="110.9225769" x2="513.9744873" y2="116.9711151"/>
		<line class="st2" x1="524.0819092" y1="121.030014" x2="518.0333862" y2="121.030014"/>
		<line class="st2" x1="513.9744873" y1="131.1374512" x2="513.9744873" y2="125.0889053"/>
		<line class="st2" x1="503.8670654" y1="121.030014" x2="509.9155884" y2="121.030014"/>
	</g>
</g>
<g id="CARDBOARD_BACK">
	<g>
		<polygon class="st1" points="420.0280762,291.79245 378.6881104,442.7524719 224.1781006,442.7524719 182.828125,291.79245 		"/>
		<polygon class="st6" points="378.6881104,442.7524719 367.2880859,508.8124695 235.578125,508.8124695 224.1781006,442.7524719 		
			"/>
	</g>
</g>
<g id="LEFT_HAND">
	<g>
		<path class="st5" d="M405.1618652,282.4827881c0,0,5.1615295-2.4282532,9.3177185,6.9060974
			c4.1561584,9.3343506,0.807312,16.4179077-5.3104858,14.0696411c0,0-0.686615,3.4235535-4.9439392,4.0853882
			s-5.8038025-2.8114319-5.8038025-2.8114319s-0.2986755,4.2948303-5.1718445,5.0339966s-6.432312-3.6388245-6.432312-3.6388245
			s-0.979187,5.9037476-6.8815613,4.9452515c-6.7328796-1.0933533-4.6536865-8.6530151-5.9601135-13.9238892
			s-6.0861206-8.9952393-3.9303894-14.3770447s8.6831055-3.8662109,10.9529419-1.1051941
			c0,0,4.5800171-6.0710449,12.4494934-0.0808105C393.4475708,281.585968,399.041687,276.624054,405.1618652,282.4827881z"/>
		<path class="st11" d="M405.1277771,285.6193237c0,0,3.9092102,6.8272095,3.7735291,14.316864"/>
		<path class="st11" d="M394.92276,286.6516418c0,0,2.9963074,6.7294006,3.0977173,13.9674683"/>
		<path class="st11" d="M383.0769348,287.5041199c0,0,3.2744141,7.6460571,3.5073242,13.1347961"/>
	</g>
</g>
<g id="ITEM_5">
	<g>
		<path class="st7" d="M296.5095825,330.0728149l-61.0032806,51.0479126
			c-3.2206726,2.6950684-8.0163422,2.2690125-10.7114258-0.9516907l-27.9338837-33.3815308
			c-2.6950836-3.2206726-2.2690125-8.0163574,0.9516754-10.7114258l61.0032501-51.0479126
			c3.2207031-2.6950989,8.0163574-2.2690125,10.7114563,0.9516602l27.9338684,33.3815613
			C300.1563416,322.5820618,299.7302551,327.3777161,296.5095825,330.0728149z"/>
		<g>
			<path class="st2" d="M263.6892395,289.3065491l-9.6017609,41.5089417
				c-1.1067047,4.7843933-5.2529907,8.2540283-10.1575317,8.4999084l-42.5515747,2.1332703"/>
			<g>
				<line class="st2" x1="239.0663452" y1="339.5592346" x2="230.5620422" y2="376.3237305"/>
				<line class="st2" x1="292.8729248" y1="324.1816101" x2="255.5523376" y2="326.0526428"/>
			</g>
		</g>
	</g>
</g>
<g id="ITEM_4">
	<path class="st6" d="M400.0382996,349.6309509l-16.0272827,37.743927
		c-1.9139709,4.5073853-7.1167297,6.6175232-11.624115,4.7035217l-70.8946228-30.104126
		c-4.5073853-1.9140015-6.6130371-7.1275024-4.6990356-11.6348877l21.5458984-50.7401733
		c1.9140015-4.5073853,7.1275635-6.6130066,11.6349487-4.6990356l34.6746216,14.7239685
		c4.5073853,1.9140015,6.6129456,7.127533,4.6989746,11.6349182l-2.0552368,4.8400269L395.34552,338.011322
		C399.8529053,339.9253235,401.9477234,345.1343079,400.0382996,349.6309509z"/>
</g>
<g id="ITEM_3">
	<g>
		<path class="st0" d="M391.5566406,400.7883911l-174.9994507,18.3486633c-4.176651,0.4378967-7.917511-2.592926-8.355423-6.7695923
			l-4.5389557-43.2900391c-0.4379272-4.1766663,2.592926-7.917511,6.769577-8.3554382l174.9994659-18.3486633
			c4.1766357-0.4378967,7.917511,2.592926,8.3554077,6.7695923l4.5389709,43.2900391
			C398.7641602,396.6096191,395.7333069,400.3504639,391.5566406,400.7883911z"/>
		<g>
			<path class="st3" d="M326.7136841,391.4299927l-96.4698029,10.1148376c-4.176651,0.4379272-7.917511-2.592926-8.355423-6.7695923
				l-1.1876526-11.3270874c-0.437912-4.1766357,2.592926-7.917511,6.769577-8.3554077l96.4698029-10.1148682
				c4.1766357-0.4378967,7.917511,2.592926,8.3554077,6.7695923l1.1876526,11.3270874
				C333.9211731,387.2512207,330.8903198,390.9920654,326.7136841,391.4299927z"/>
			<path class="st3" d="M374.5186462,386.4176331l-20.8316345,2.1842041
				c-4.1766357,0.4379272-7.917511-2.592926-8.3554382-6.7695618l-1.1876221-11.3271179
				c-0.4379272-4.1766357,2.592926-7.917511,6.7695618-8.3554077l20.8316345-2.1842041
				c4.1766663-0.4379272,7.917511,2.592926,8.3554382,6.7695923l1.1876221,11.3270874
				C381.7261353,382.2388611,378.6953125,385.9797363,374.5186462,386.4176331z"/>
		</g>
	</g>
</g>
<g id="ITEM_2">
	<g>
		<path class="st7" d="M299.1604309,462.6573486l-36.291626,13.1766357c-3.9474182,1.433197-8.3092804-0.60495-9.7424927-4.5523682
			l-21.5445251-59.3387451c-1.4332123-3.9474182,0.60495-8.3092957,4.5523682-9.7424927l36.291626-13.1766663
			c3.9474182-1.433197,8.3092651,0.60495,9.7424927,4.5523682l21.5445251,59.3387451
			C305.1460266,456.8622437,303.1078491,461.2241211,299.1604309,462.6573486z"/>
		<path class="st6" d="M239.8938141,414.3383179l-0.4846039-1.3346863c-0.806076-2.2201538,0.3402405-4.6734009,2.5603943-5.4794922
			l29.3952637-10.6727295c2.2112122-0.8028564,4.6772766,0.3494568,5.4801025,2.5606689l0.484436,1.334259
			c0.8061829,2.2203979-0.340271,4.6739197-2.5606689,5.4801025l-29.3948059,10.6725769
			C243.1535187,417.7052002,240.6999817,416.5587463,239.8938141,414.3383179z"/>
		<path class="st6" d="M257.6696472,463.2971802l-12.3981934-34.1475525
			c-0.8060913-2.2201538,0.3402405-4.6734009,2.5603943-5.4794922l29.3952637-10.6727295
			c2.2112122-0.8028259,4.6772766,0.3494568,5.4801025,2.5606995l12.3980408,34.1470947
			c0.8061829,2.2203979-0.3403015,4.6739197-2.5606995,5.4801025l-29.3948059,10.6725769
			C260.9293518,466.6640625,258.4758301,465.5176086,257.6696472,463.2971802z"/>
	</g>
</g>
<g id="ITEM_1">
	<g>
		<g>
			<path class="st7" d="M336.8670654,476.0895691l-34.9246521-16.4612732
				c-3.7987366-1.7904968-5.4267578-6.3214722-3.636261-10.1202087l26.9150696-57.1036682
				c1.7904968-3.7987366,6.3214417-5.4267578,10.1201782-3.636261l34.9246521,16.4612732
				c3.7987366,1.7904663,5.4267578,6.3214417,3.636261,10.1201782l-26.9150696,57.1036987
				C345.1967773,476.2520447,340.665802,477.8800354,336.8670654,476.0895691z"/>
		</g>
		<g>
			<path class="st6" d="M329.1285706,400.5221558l0.6054077-1.2844238c1.007019-2.1365356,3.5553589-3.0521851,5.6918945-2.045166
				l28.2880554,13.3332214c2.1279297,1.0029602,3.0483704,3.5646057,2.0453796,5.6925354l-0.6051636,1.2839966
				c-1.0071411,2.1367798-3.5557861,3.0525208-5.6925659,2.0453796l-28.2876282-13.3330078
				C329.0371704,405.20755,328.1214294,402.658905,329.1285706,400.5221558z"/>
			<path class="st6" d="M321.5687561,416.5612183l0.6054077-1.2844238c1.007019-2.1365356,3.5553894-3.0521545,5.6918945-2.0451355
				l28.2880859,13.3331909c2.1279297,1.0029602,3.0483398,3.5646362,2.0453796,5.6925659l-0.6051941,1.2839661
				c-1.0071411,2.1367798-3.5557861,3.0525208-5.6925659,2.0453796l-28.2876282-13.3329773
				C321.4773865,421.2466431,320.561615,418.697998,321.5687561,416.5612183z"/>
			<path class="st3" d="M314.0089722,432.6002808l0.6053772-1.2843933c1.007019-2.1365356,3.5553894-3.0521851,5.691925-2.045166
				l28.2880554,13.3331909c2.1279297,1.0029907,3.0483398,3.5646362,2.0453796,5.6925659l-0.6051941,1.2839966
				c-1.0071411,2.1367493-3.5557861,3.0525208-5.6925659,2.0453796l-28.2875977-13.3330078
				C313.917572,437.2857056,313.0018311,434.7370605,314.0089722,432.6002808z"/>
			<path class="st3" d="M306.4491577,448.6393738l0.6054077-1.2844238c1.007019-2.1365356,3.5553589-3.0521851,5.6918945-2.0451355
				l28.2880554,13.3331909c2.1279297,1.0029602,3.0483704,3.5646057,2.0453796,5.6925659l-0.6051941,1.2839661
				c-1.0071106,2.1367798-3.5557556,3.0525208-5.6925354,2.0453796l-28.2876282-13.3329773
				C306.3577576,453.3247986,305.4420166,450.7761536,306.4491577,448.6393738z"/>
		</g>
	</g>
</g>
<g id="CARDBOARD">
	<g>
		<g>
			<polygon class="st6" points="392.4681396,492.1824646 210.3980713,492.1824646 224.1781006,442.7524719 378.6881104,442.7524719 
							"/>
			<line class="st8" x1="228.9677734" y1="442.7524719" x2="374.5033264" y2="442.7524719"/>
			<line class="st8" x1="239.0663452" y1="492.1824646" x2="367.264801" y2="492.1824646"/>
		</g>
		<polygon class="st6" points="182.828125,291.79245 142.6718597,343.7854614 181.1669159,479.5874329 224.1781006,442.7524719 		
			"/>
		<polygon class="st6" points="420.0380859,291.79245 460.1943665,343.7854614 421.6993103,479.5874329 378.6881104,442.7524719 		
			"/>
	</g>
</g>
<g id="GROUND">
	<g>
		<line class="st2" x1="434.1622009" y1="527.1366577" x2="362.8573608" y2="527.1366577"/>
		<line class="st2" x1="333.717041" y1="527.1366577" x2="165.8377838" y2="527.1366577"/>
		<line class="st2" x1="389.3329468" y1="545.6640015" x2="241.8804169" y2="545.6640015"/>
		<line class="st2" x1="218.8974152" y1="545.6640015" x2="199.0703888" y2="545.6640015"/>
	</g>
</g>
</svg>
